<?xml version="1.0" standalone="no"?>
<!DOCTYPE svg PUBLIC "-//W3C//DTD SVG 20010904//EN"
 "http://www.w3.org/TR/2001/REC-SVG-20010904/DTD/svg10.dtd">
<svg version="1.0" xmlns="http://www.w3.org/2000/svg"
 width="101.000000pt" height="101.000000pt" viewBox="0 0 101.000000 101.000000"
 preserveAspectRatio="xMidYMid meet">
<metadata>
Created by potrace 1.11, written by Peter Selinger 2001-2013
</metadata>
<g transform="translate(0.000000,101.000000) scale(0.100000,-0.100000)"
fill="#000000" stroke="none">
<path d="M358 991 c-100 -32 -195 -98 -249 -173 l-19 -26 80 1 80 0 29 46 c36
56 77 102 127 141 42 34 32 36 -48 11z"/>
<path d="M590 985 c46 -34 97 -91 132 -147 l30 -48 84 0 c80 0 84 1 75 19 -18
32 -122 121 -172 147 -43 21 -147 54 -173 54 -5 0 5 -11 24 -25z"/>
<path d="M412 908 c-51 -54 -92 -102 -92 -111 0 -2 34 -5 75 -6 l75 -2 0 86
c0 47 -2 85 -4 85 -2 0 -26 -24 -54 -52z"/>
<path d="M528 953 c-2 -4 -4 -42 -4 -83 l1 -75 78 -1 c42 0 77 2 77 4 0 26
-144 172 -152 155z"/>
<path d="M520 640 l0 -110 124 0 124 0 -5 43 c-3 23 -15 71 -27 107 l-21 65
-97 3 -98 3 0 -111z"/>
<path d="M31 678 c-11 -35 -23 -81 -27 -103 l-6 -40 91 -1 91 -1 5 36 c3 20
14 66 24 104 l18 67 -88 0 -87 0 -21 -62z"/>
<path d="M265 688 c-9 -29 -19 -77 -22 -105 l-6 -53 122 0 121 0 0 105 0 105
-100 0 -99 0 -16 -52z"/>
<path d="M791 680 c10 -33 20 -79 21 -102 l3 -43 98 -2 98 -1 -5 46 c-4 26
-16 73 -27 105 l-21 57 -93 0 -93 0 19 -60z"/>
<path d="M6 433 c4 -27 15 -70 24 -98 l17 -50 86 -3 c48 -1 87 -1 87 2 0 3 -4
16 -10 30 -5 14 -12 45 -15 68 -3 24 -8 52 -10 63 -2 11 -4 23 -4 28 -1 4 -42
7 -92 7 l-90 0 7 -47z"/>
<path d="M240 441 c0 -21 9 -69 20 -105 l21 -66 99 0 100 0 0 105 0 105 -120
0 -120 0 0 -39z"/>
<path d="M520 375 l0 -105 99 0 99 0 16 48 c9 26 19 73 23 105 l6 57 -122 0
-121 0 0 -105z"/>
<path d="M819 478 c0 -2 -2 -19 -5 -38 -5 -45 -21 -120 -30 -143 -6 -16 1 -18
87 -15 l93 3 17 50 c9 28 20 71 24 98 l7 47 -96 0 c-53 0 -96 -1 -97 -2z"/>
<path d="M90 221 c0 -24 86 -110 149 -149 37 -23 115 -54 166 -66 26 -7 24 -2
-32 51 -33 32 -76 83 -96 114 l-35 55 -76 1 c-42 1 -76 -2 -76 -6z"/>
<path d="M315 221 c-8 -7 83 -117 119 -145 l36 -27 0 88 0 89 -76 -1 c-41 0
-77 -2 -79 -4z"/>
<path d="M529 225 c-7 -1 -5 -175 2 -175 13 0 123 114 141 147 l18 31 -80 -1
c-44 -1 -81 -1 -81 -2z"/>
<path d="M729 181 c-13 -25 -55 -77 -92 -114 l-69 -68 39 6 c51 9 191 78 228
113 37 35 85 91 85 101 0 4 -38 7 -83 7 l-84 0 -24 -45z"/>
</g>
</svg>
